<mxfile host="65bd71144e" scale="1" border="10">
    <diagram id="Jzq2uSluYrWErw24eLcY" name="ページ1">
        <mxGraphModel dx="621" dy="715" grid="1" gridSize="10" guides="1" tooltips="1" connect="1" arrows="1" fold="1" page="1" pageScale="1" pageWidth="827" pageHeight="1169" background="#ffffff" math="0" shadow="0">
            <root>
                <mxCell id="0"/>
                <mxCell id="1" parent="0"/>
                <mxCell id="16" style="edgeStyle=none;html=1;entryX=0.5;entryY=0;entryDx=0;entryDy=0;labelBorderColor=none;" parent="1" source="2" target="5" edge="1">
                    <mxGeometry relative="1" as="geometry"/>
                </mxCell>
                <mxCell id="2" value="presentation層" style="rounded=0;whiteSpace=wrap;html=1;align=left;verticalAlign=top;labelBorderColor=none;" parent="1" vertex="1">
                    <mxGeometry x="169" y="80" width="190" height="70" as="geometry"/>
                </mxCell>
                <mxCell id="3" value="handler" style="rounded=0;whiteSpace=wrap;html=1;labelBorderColor=none;" parent="1" vertex="1">
                    <mxGeometry x="214" y="110" width="100" height="30" as="geometry"/>
                </mxCell>
                <mxCell id="13" style="edgeStyle=none;html=1;entryX=0.5;entryY=0;entryDx=0;entryDy=0;labelBorderColor=none;" parent="1" source="5" target="7" edge="1">
                    <mxGeometry relative="1" as="geometry"/>
                </mxCell>
                <mxCell id="5" value="application層" style="rounded=0;whiteSpace=wrap;html=1;align=left;verticalAlign=top;labelBorderColor=none;" parent="1" vertex="1">
                    <mxGeometry x="169" y="180" width="190" height="70" as="geometry"/>
                </mxCell>
                <mxCell id="6" value="usecase" style="rounded=0;whiteSpace=wrap;html=1;labelBorderColor=none;" parent="1" vertex="1">
                    <mxGeometry x="214" y="210" width="100" height="30" as="geometry"/>
                </mxCell>
                <mxCell id="7" value="domain層" style="rounded=0;whiteSpace=wrap;html=1;align=left;verticalAlign=top;labelBorderColor=none;" parent="1" vertex="1">
                    <mxGeometry x="169" y="280" width="190" height="120" as="geometry"/>
                </mxCell>
                <mxCell id="17" style="edgeStyle=none;html=1;entryX=0.5;entryY=0;entryDx=0;entryDy=0;labelBorderColor=none;" parent="1" source="8" target="9" edge="1">
                    <mxGeometry relative="1" as="geometry"/>
                </mxCell>
                <mxCell id="8" value="service" style="rounded=0;whiteSpace=wrap;html=1;labelBorderColor=none;" parent="1" vertex="1">
                    <mxGeometry x="214" y="310" width="100" height="30" as="geometry"/>
                </mxCell>
                <mxCell id="9" value="model" style="rounded=0;whiteSpace=wrap;html=1;labelBorderColor=none;" parent="1" vertex="1">
                    <mxGeometry x="214" y="360" width="100" height="30" as="geometry"/>
                </mxCell>
                <mxCell id="14" style="edgeStyle=none;html=1;entryX=0.5;entryY=1;entryDx=0;entryDy=0;labelBorderColor=none;" parent="1" source="10" target="7" edge="1">
                    <mxGeometry relative="1" as="geometry"/>
                </mxCell>
                <mxCell id="10" value="infrastructure層" style="rounded=0;whiteSpace=wrap;html=1;align=left;verticalAlign=top;labelBorderColor=none;" parent="1" vertex="1">
                    <mxGeometry x="169" y="430" width="190" height="70" as="geometry"/>
                </mxCell>
                <mxCell id="15" value="repository" style="rounded=0;whiteSpace=wrap;html=1;labelBorderColor=none;" parent="1" vertex="1">
                    <mxGeometry x="214" y="460" width="100" height="30" as="geometry"/>
                </mxCell>
                <mxCell id="21" style="edgeStyle=none;html=1;entryX=1;entryY=0.5;entryDx=0;entryDy=0;labelBorderColor=none;strokeColor=#000000;" parent="1" source="19" target="2" edge="1">
                    <mxGeometry relative="1" as="geometry">
                        <Array as="points">
                            <mxPoint x="400" y="290"/>
                            <mxPoint x="400" y="115"/>
                        </Array>
                    </mxGeometry>
                </mxCell>
                <mxCell id="22" style="edgeStyle=none;html=1;entryX=1;entryY=0.5;entryDx=0;entryDy=0;labelBorderColor=none;strokeColor=#000000;" parent="1" source="19" target="5" edge="1">
                    <mxGeometry relative="1" as="geometry">
                        <Array as="points">
                            <mxPoint x="400" y="290"/>
                            <mxPoint x="400" y="215"/>
                        </Array>
                    </mxGeometry>
                </mxCell>
                <mxCell id="23" style="edgeStyle=none;html=1;entryX=1;entryY=0.5;entryDx=0;entryDy=0;labelBorderColor=none;strokeColor=#000000;" parent="1" source="19" target="7" edge="1">
                    <mxGeometry relative="1" as="geometry">
                        <Array as="points">
                            <mxPoint x="400" y="290"/>
                            <mxPoint x="400" y="340"/>
                        </Array>
                    </mxGeometry>
                </mxCell>
                <mxCell id="24" style="edgeStyle=none;html=1;entryX=1;entryY=0.5;entryDx=0;entryDy=0;labelBorderColor=none;strokeColor=#000000;" parent="1" source="19" target="10" edge="1">
                    <mxGeometry relative="1" as="geometry">
                        <Array as="points">
                            <mxPoint x="400" y="290"/>
                            <mxPoint x="400" y="465"/>
                        </Array>
                    </mxGeometry>
                </mxCell>
                <mxCell id="19" value="registry" style="rounded=0;whiteSpace=wrap;html=1;align=center;verticalAlign=middle;labelBorderColor=none;" parent="1" vertex="1">
                    <mxGeometry x="430" y="270" width="100" height="40" as="geometry"/>
                </mxCell>
            </root>
        </mxGraphModel>
    </diagram>
</mxfile>
